<svg width="33" height="30" viewBox="0 0 33 30" fill="none" xmlns="http://www.w3.org/2000/svg">
<g filter="url(#filter0_d_580_1047)">
<path d="M9.26015 16.9155C8.89232 16.4421 8.66058 15.4218 8.66058 13.9689C8.69935 12.388 8.90537 10.8496 9.26196 9.47835C9.61854 8.10707 10.1157 6.94145 10.7131 6.07591C10.9202 5.7422 11.1636 5.53684 11.4183 5.4809C11.673 5.42495 11.9298 5.52043 12.1623 5.75757L14.8033 9.15311C15.4706 10.0093 15.9573 11.4186 16.1563 13.071C16.3553 14.7235 16.2504 16.4837 15.8645 17.9644C15.4787 19.4451 14.8436 20.5251 14.099 20.9667C13.3543 21.4083 12.5611 21.1754 11.8938 20.3192L9.26015 16.9155Z" fill="#F5F5F5"/>
<path d="M5.62236 12.2467C5.26506 11.8555 4.94777 11.3058 4.69015 10.6314C4.43253 9.95704 4.24007 9.17246 4.12469 8.32627C4.00931 7.48009 3.97347 6.59034 4.0194 5.71217C4.06532 4.83399 4.19203 3.9861 4.39167 3.22104C4.59131 2.45598 4.85963 1.79007 5.18 1.26455C5.50037 0.739025 5.86597 0.365085 6.25413 0.165937C6.64228 -0.0332102 7.04474 -0.0533324 7.43655 0.106802C7.82836 0.266936 8.20117 0.603926 8.53188 1.09688L12.1624 5.78206C11.9298 5.54493 11.673 5.44945 11.4183 5.50539C11.1636 5.56134 10.9202 5.7667 10.7131 6.10041C10.1157 6.96595 9.61858 8.13157 9.262 9.50285C8.90541 10.8741 8.69939 12.4125 8.66062 13.9934C8.66062 15.4463 8.88868 16.4421 9.26019 16.94L5.62236 12.2467Z" fill="#407CE2"/>
<path opacity="0.4" d="M6.27707 2.78653C6.2028 3.06621 6.15432 3.37585 6.13447 3.69747C6.11462 4.0191 6.12379 4.34627 6.16145 4.65995C6.1991 4.97364 6.26447 5.26758 6.35378 5.52469C6.44309 5.78179 6.55455 5.99694 6.68167 6.15759L11.0772 11.8141C11.4474 10.4532 11.655 8.90523 11.6805 7.31663C11.6805 7.16154 11.6805 7.01462 11.6805 6.87585L7.79619 1.91316C7.67082 1.74733 7.53188 1.63835 7.38739 1.59252C7.24291 1.54668 7.09576 1.5649 6.95447 1.64613C6.81318 1.72735 6.68055 1.86997 6.56428 2.06573C6.448 2.26148 6.35038 2.50648 6.27707 2.78653Z" fill="white"/>
<path d="M9.26015 16.9155C8.89232 16.4421 8.66058 15.4218 8.66058 13.9689C8.69935 12.388 8.90537 10.8496 9.26196 9.47835C9.61854 8.10707 10.1157 6.94145 10.7131 6.07591C10.9202 5.7422 11.1636 5.53684 11.4183 5.4809C11.673 5.42495 11.9298 5.52043 12.1623 5.75757L14.8033 9.15311C15.4706 10.0093 15.9573 11.4186 16.1563 13.071C16.3553 14.7235 16.2504 16.4837 15.8645 17.9644C15.4787 19.4451 14.8436 20.5251 14.099 20.9667C13.3543 21.4083 12.5611 21.1754 11.8938 20.3192L9.26015 16.9155Z" fill="#F5F5F5"/>
<path opacity="0.1" d="M10.7131 6.07596C10.1157 6.9415 9.61856 8.10711 9.26197 9.4784C8.90538 10.8497 8.69936 12.3881 8.6606 13.9689C8.6606 15.4218 8.88865 16.4177 9.26016 16.9156L9.05418 16.6544L8.89601 16.4503C8.52818 15.9769 8.29645 14.9566 8.29645 13.5037C8.33434 11.9224 8.54 10.3833 8.89666 9.01167C9.25333 7.64008 9.75092 6.47479 10.3489 5.6107C10.556 5.27699 10.7994 5.07163 11.0541 5.01568C11.3088 4.95974 11.5656 5.05525 11.7982 5.29238L12.166 5.75761C11.933 5.51892 11.6755 5.42259 11.4201 5.47855C11.1646 5.53451 10.9206 5.74075 10.7131 6.07596Z" fill="black"/>
<path d="M16.2342 14.0506C16.3035 15.4076 16.1746 16.7782 15.8664 17.9603C15.6755 18.6945 15.4213 19.3379 15.1183 19.8539C14.8153 20.3699 14.4694 20.7482 14.1005 20.9673C13.7315 21.1864 13.3467 21.2419 12.9681 21.1307C12.5894 21.0195 12.2244 20.7438 11.8938 20.3192L9.26015 16.9156C8.89232 16.4421 8.66058 15.4218 8.66058 13.9689C8.6634 13.3012 8.70544 12.6372 8.78564 11.9937L13.1996 17.6502C14.6415 19.5112 16.2195 16.1646 16.2342 14.0506Z" fill="#EBEBEB"/>
<path d="M15.2337 14.3035C15.1614 14.5856 15.0644 14.8329 14.9485 15.0311C14.8327 15.2293 14.7002 15.3744 14.5589 15.458C14.4175 15.5415 14.2701 15.5619 14.1251 15.5178C13.9802 15.4738 13.8407 15.3662 13.7146 15.2014L9.26019 9.48774C9.60393 8.09165 10.1044 6.91637 10.7131 6.07588L10.8897 5.87183L14.8255 10.9243C14.9534 11.0843 15.0656 11.2992 15.1556 11.5567C15.2456 11.8141 15.3116 12.1088 15.3496 12.4235C15.3876 12.7382 15.397 13.0666 15.3771 13.3894C15.3572 13.7123 15.3085 14.023 15.2337 14.3035Z" fill="white"/>
<path opacity="0.1" d="M4.76531 2.72933C4.79841 2.63138 4.83151 2.53343 4.8683 2.44364L4.94554 2.24775L5.0375 2.03552C5.07003 1.96062 5.10442 1.88978 5.14049 1.82332L5.19199 1.72535C5.34553 1.43575 5.51191 1.18142 5.68856 0.966258L5.88351 0.754028C5.07061 1.83962 4.55565 6.54116 6.00122 8.40218C6.49779 9.03884 7.24081 10.0346 8.77098 11.9773C8.69078 12.6208 8.64874 13.2849 8.64592 13.9526C8.64592 15.4055 8.87396 16.4013 9.24547 16.8992L5.60764 12.2303C4.94022 11.3734 4.45337 9.96369 4.25405 8.31078C4.05473 6.65788 4.15923 4.897 4.5446 3.41496C4.58874 3.24355 4.64025 3.08032 4.69175 2.91707L4.76531 2.72933Z" fill="black"/>
<path d="M23.8282 16.8722C24.0404 16.5393 24.2088 16.0875 24.3161 15.5631C24.4235 15.0388 24.4659 14.4607 24.4391 13.8882C24.3996 12.2929 24.1908 10.7407 23.8296 9.35722C23.4685 7.97378 22.9651 6.79801 22.3604 5.92518C21.7866 5.19154 21.2651 5.10085 20.8888 5.60369L18.2177 9.02463C17.5414 9.8882 17.0478 11.3109 16.8455 12.9797C16.6433 14.6485 16.7489 16.4267 17.1392 17.9232C17.5295 19.4197 18.1724 20.5119 18.9266 20.9594C19.6808 21.407 20.4845 21.1732 21.1608 20.3096L23.8282 16.8722Z" fill="#407CE2"/>
<path d="M27.5126 12.1571C28.189 11.2935 28.6825 9.87086 28.8848 8.20205C29.0871 6.53324 28.9814 4.755 28.5912 3.25851C28.2009 1.76203 27.5579 0.669902 26.8037 0.222361C26.0495 -0.22518 25.2459 0.00853333 24.5696 0.872101L20.8889 5.6367C21.2614 5.15035 21.7867 5.22455 22.3604 5.9582C22.9652 6.83102 23.4685 8.00676 23.8297 9.39021C24.1908 10.7737 24.3996 12.3259 24.4392 13.9212C24.466 14.4937 24.4235 15.0718 24.3162 15.5961C24.2088 16.1205 24.0404 16.5723 23.8282 16.9052L27.5126 12.1571Z" fill="white"/>
<path opacity="0.4" d="M26.8533 2.59495C26.9283 2.87789 26.9772 3.19105 26.997 3.5162C27.0169 3.84135 27.0072 4.17199 26.9688 4.48885C26.9303 4.8057 26.8637 5.10243 26.7729 5.36178C26.682 5.62112 26.5688 5.83787 26.4397 5.99941L21.9916 11.712C21.6162 10.338 21.4059 8.77446 21.3806 7.16994C21.3806 7.02156 21.3806 6.8732 21.3806 6.72483L25.3072 1.67996C25.4354 1.51123 25.5775 1.40095 25.7253 1.35567C25.873 1.31038 26.0233 1.331 26.1674 1.41627C26.3115 1.50154 26.4464 1.64975 26.5642 1.85218C26.682 2.05461 26.7803 2.30716 26.8533 2.59495Z" fill="white"/>
<path d="M23.8282 16.8722C24.0404 16.5393 24.2088 16.0875 24.3161 15.5631C24.4235 15.0388 24.4659 14.4607 24.4391 13.8882C24.3996 12.2929 24.1908 10.7407 23.8296 9.35722C23.4685 7.97378 22.9651 6.79801 22.3604 5.92518C21.7866 5.19154 21.2651 5.10085 20.8888 5.60369L18.2177 9.02463C17.5414 9.8882 17.0478 11.3109 16.8455 12.9797C16.6433 14.6485 16.7489 16.4267 17.1392 17.9232C17.5295 19.4197 18.1724 20.5119 18.9266 20.9594C19.6808 21.407 20.4845 21.1732 21.1608 20.3096L23.8282 16.8722Z" fill="#407CE2"/>
<path opacity="0.1" d="M22.3603 5.92522C22.9651 6.79805 23.4685 7.97381 23.8296 9.35726C24.1908 10.7407 24.3996 12.2929 24.4391 13.8882C24.4659 14.4608 24.4235 15.0388 24.3161 15.5632C24.2088 16.0875 24.0404 16.5393 23.8282 16.8723L24.0405 16.6002L24.197 16.3941C24.4095 16.0637 24.5782 15.6135 24.6856 15.0903C24.793 14.5671 24.8352 13.9898 24.8079 13.4183C24.7687 11.8229 24.56 10.2704 24.1988 8.88689C23.8376 7.50334 23.3341 6.32769 22.7292 5.45535C22.519 5.11708 22.2721 4.90832 22.0135 4.85039C21.755 4.79246 21.4941 4.88744 21.2576 5.12563L20.8851 5.60372C21.2651 5.11737 21.7755 5.19157 22.3603 5.92522Z" fill="black"/>
<path d="M16.7647 13.9789C16.7059 15.1743 16.798 16.3823 17.0308 17.4688C17.2636 18.5553 17.628 19.4777 18.0834 20.1336C18.5389 20.7895 19.0676 21.1532 19.6108 21.1843C20.154 21.2154 20.6905 20.9126 21.1607 20.3097L23.8281 16.8723C24.0403 16.5393 24.2087 16.0875 24.3161 15.5632C24.4234 15.0389 24.4659 14.4608 24.439 13.8882C24.4349 13.2163 24.391 12.5484 24.3087 11.9016L19.8382 17.6142C18.3778 19.4854 16.7833 16.1139 16.7647 13.9789Z" fill="#407CE2"/>
<path d="M17.7818 14.2261C17.8548 14.5117 17.9528 14.7622 18.07 14.9632C18.1872 15.1642 18.3213 15.3116 18.4645 15.3967C18.6077 15.4819 18.7571 15.5031 18.9041 15.4592C19.051 15.4153 19.1926 15.3072 19.3204 15.1411L23.8319 9.37082C23.4815 7.96675 22.975 6.78364 22.3604 5.93338C22.3015 5.8566 22.2405 5.78778 22.1778 5.72729L18.1916 10.8299C18.0634 10.9921 17.951 11.209 17.8608 11.468C17.7707 11.727 17.7047 12.023 17.6665 12.3388C17.6284 12.6547 17.619 12.9841 17.6388 13.308C17.6586 13.6319 17.7072 13.944 17.7818 14.2261Z" fill="#8CB0EE"/>
<path opacity="0.1" d="M28.3844 2.5785L28.28 2.28173L28.1981 2.0839L28.105 1.87781L28.0044 1.66348L27.9522 1.56457C27.7963 1.26926 27.6265 1.01222 27.4456 0.797951L27.2481 0.583618C28.0752 1.68821 28.5967 6.43632 27.1289 8.30754C26.626 8.95052 25.8772 9.9562 24.3237 11.9263C24.406 12.5732 24.4499 13.241 24.4541 13.913C24.4809 14.4855 24.4384 15.0636 24.3311 15.5879C24.2237 16.1123 24.0553 16.5641 23.8431 16.897L27.5275 12.1819C27.8626 11.7542 28.1563 11.1845 28.3918 10.5054C28.6273 9.82637 28.7999 9.05125 28.8999 8.2244C28.9999 7.39755 29.0253 6.53517 28.9745 5.68662C28.9238 4.83807 28.7979 4.02001 28.6042 3.27918C28.5595 3.10607 28.511 2.93294 28.4589 2.76807L28.3844 2.5785Z" fill="black"/>
</g>
<defs>
<filter id="filter0_d_580_1047" x="0" y="0" width="33" height="33" filterUnits="userSpaceOnUse" color-interpolation-filters="sRGB">
<feFlood flood-opacity="0" result="BackgroundImageFix"/>
<feColorMatrix in="SourceAlpha" type="matrix" values="0 0 0 0 0 0 0 0 0 0 0 0 0 0 0 0 0 0 127 0" result="hardAlpha"/>
<feOffset dy="4"/>
<feGaussianBlur stdDeviation="2"/>
<feComposite in2="hardAlpha" operator="out"/>
<feColorMatrix type="matrix" values="0 0 0 0 0 0 0 0 0 0 0 0 0 0 0 0 0 0 0.25 0"/>
<feBlend mode="normal" in2="BackgroundImageFix" result="effect1_dropShadow_580_1047"/>
<feBlend mode="normal" in="SourceGraphic" in2="effect1_dropShadow_580_1047" result="shape"/>
</filter>
</defs>
</svg>
