<svg width="74" height="35" viewBox="0 0 74 35" fill="none" xmlns="http://www.w3.org/2000/svg">
<g clip-path="url(#clip0_906_1675)" filter="url(#filter0_d_906_1675)">
<g filter="url(#filter1_d_906_1675)">
<path d="M31.2755 11.5C31.2563 10.695 31.2718 9.8425 31.4628 9.1765C31.5635 8.8265 31.7087 8.5435 31.9189 8.343C32.1302 8.142 32.4333 8 32.8767 8C33.3736 8 33.7876 8.268 34.084 8.547C34.2312 8.686 34.3391 8.7435 34.4305 8.81179C34.4665 8.85991 34.5257 8.95296 34.5257 8.95296C34.555 9.00208 35.2468 9.77133 35.2866 9.80002C35.2424 9.79612 35.3264 9.82871 35.2866 9.80002C35.2866 9.80002 35.435 9.82151 35.4768 9.80002C35.5186 9.77854 35.634 9.70245 35.6671 9.65885C35.7002 9.61525 35.7429 9.57675 35.7622 9.51767C35.7596 9.58323 35.7815 9.45859 35.7622 9.51767C35.7648 9.45211 35.7767 9.29738 35.7622 9.23532C35.7477 9.17326 35.0644 8.46761 35.035 8.4185L34.7874 8.7435C35.035 8.4185 35.0343 8.4175 35.0343 8.4175L35.033 8.415L35.0296 8.41C35.0164 8.38773 35.0027 8.36606 34.9885 8.345C34.9511 8.28916 34.9126 8.23497 34.873 8.1825C34.7392 8.00588 34.5961 7.84537 34.4452 7.7025C34.078 7.358 33.539 7 32.8767 7C32.3356 7 31.8987 7.1745 31.5551 7.5015C31.2105 7.83 30.9858 8.2865 30.843 8.7845C30.5943 9.651 30.5822 10.6835 30.6011 11.5H28.8146C28.6284 11.5 28.4757 11.725 28.497 11.999C28.7041 14.689 30.5721 16.8205 32.8959 16.989V21H33.5696V16.983C34.1304 16.9333 34.6831 16.7615 35.2102 16.473C35.2136 16.5303 35.2152 16.5898 35.2152 16.6515C35.2152 17.0325 35.0054 17.4885 34.5749 17.8845C34.3541 18.0847 34.1163 18.24 33.8678 18.3465V19.3795C34.2427 19.2508 34.6011 19.033 34.9292 18.7345C35.4255 18.28 35.889 17.5615 35.889 16.652C35.889 16.447 35.8762 16.2445 35.8476 16.048C36.9818 15.146 37.761 13.682 37.891 11.9995C37.9123 11.7255 37.7593 11.5005 37.5734 11.5005L31.2755 11.5Z" fill="white"/>
</g>
<g filter="url(#filter2_d_906_1675)">
<path d="M35.2153 24.5C35.2153 25.0825 35.094 25.594 34.872 26H35.889V27H30.499V26H32.8959V24H33.5696V25.957C33.8398 25.8915 34.0534 25.755 34.207 25.5755C34.4175 25.3305 34.5415 24.9775 34.5415 24.5C34.5415 24.0225 34.4175 23.67 34.207 23.4245C33.988 23.1685 33.6471 22.9995 33.194 22.9995C32.683 22.9995 32.116 22.94 31.6676 22.6445C31.4372 22.4925 31.2246 22.2695 31.0704 21.943C30.9147 21.613 30.8359 21.2125 30.8359 20.75C30.8359 20.2875 30.9147 19.887 31.0704 19.557C31.2246 19.2305 31.4376 19.0075 31.6676 18.8555C31.9237 18.6865 32.2191 18.5945 32.5203 18.547V19.5535C32.2986 19.595 32.1019 19.6635 31.9412 19.7695C31.7926 19.8675 31.6895 19.9885 31.6225 20.1305C31.5571 20.269 31.5096 20.4625 31.5096 20.75C31.5096 21.0375 31.5568 21.231 31.6225 21.3695C31.6895 21.5115 31.7926 21.6325 31.9412 21.7305C32.2511 21.935 32.6944 22 33.194 22C33.7512 22 34.2531 22.2065 34.6234 22.638C35.0024 23.08 35.2153 23.7275 35.2153 24.5Z" fill="white"/>
</g>
<path d="M30.0551 6.97944C30.0551 6.82185 30.1829 6.69409 30.3405 6.69409C30.4981 6.69409 30.6258 6.82185 30.6258 6.97944V13.1882H30.0551V6.97944Z" fill="white"/>
</g>
<path d="M1.32567 23.8636V13.3636H2.4592V14.5767H2.5984C2.68457 14.4441 2.80389 14.2751 2.95635 14.0696C3.11213 13.8608 3.3342 13.6752 3.62255 13.5128C3.91421 13.3471 4.30863 13.2642 4.80579 13.2642C5.44878 13.2642 6.01554 13.425 6.50607 13.7464C6.9966 14.0679 7.37941 14.5237 7.65451 15.1136C7.9296 15.7036 8.06715 16.3996 8.06715 17.2017C8.06715 18.0104 7.9296 18.7114 7.65451 19.3047C7.37941 19.8946 6.99826 20.352 6.51104 20.6768C6.02383 20.9983 5.46204 21.1591 4.82567 21.1591C4.33514 21.1591 3.94239 21.0779 3.64741 20.9155C3.35242 20.7498 3.12539 20.5625 2.9663 20.3537C2.80721 20.1416 2.68457 19.9659 2.5984 19.8267H2.49897V23.8636H1.32567ZM2.47908 17.1818C2.47908 17.7585 2.5636 18.2673 2.73263 18.7081C2.90167 19.1456 3.14859 19.4886 3.4734 19.7372C3.79821 19.9825 4.19594 20.1051 4.66658 20.1051C5.15711 20.1051 5.56644 19.9759 5.89457 19.7173C6.226 19.4555 6.47458 19.1042 6.6403 18.6634C6.80934 18.2192 6.89385 17.7254 6.89385 17.1818C6.89385 16.6449 6.811 16.161 6.64528 15.7301C6.48287 15.2959 6.23595 14.9529 5.90451 14.701C5.57638 14.4458 5.16374 14.3182 4.66658 14.3182C4.18931 14.3182 3.78827 14.4392 3.46346 14.6811C3.13865 14.9197 2.89338 15.2545 2.72766 15.6854C2.56194 16.1129 2.47908 16.6117 2.47908 17.1818ZM11.0302 16.4062V21H9.85692V10.8182H11.0302V14.5568H11.1297C11.3086 14.1624 11.5771 13.8492 11.935 13.6172C12.2963 13.3819 12.7769 13.2642 13.3768 13.2642C13.8972 13.2642 14.3529 13.3686 14.744 13.5774C15.1351 13.7829 15.4384 14.0994 15.6538 14.527C15.8725 14.9512 15.9819 15.4915 15.9819 16.1477V21H14.8086V16.2273C14.8086 15.6207 14.6512 15.1518 14.3363 14.8203C14.0248 14.4856 13.5922 14.3182 13.0387 14.3182C12.6543 14.3182 12.3096 14.3994 12.0047 14.5618C11.703 14.7242 11.4644 14.9612 11.2887 15.2727C11.1164 15.5843 11.0302 15.9621 11.0302 16.4062ZM20.3756 21.179C19.8917 21.179 19.4525 21.0878 19.0581 20.9055C18.6637 20.7199 18.3505 20.4531 18.1185 20.1051C17.8865 19.7538 17.7705 19.3295 17.7705 18.8324C17.7705 18.3949 17.8566 18.0402 18.029 17.7685C18.2013 17.4934 18.4317 17.2779 18.72 17.1222C19.0084 16.9664 19.3266 16.8504 19.6746 16.7741C20.0259 16.6946 20.3789 16.6316 20.7335 16.5852C21.1975 16.5256 21.5737 16.4808 21.8621 16.451C22.1537 16.4179 22.3659 16.3632 22.4984 16.2869C22.6343 16.2107 22.7023 16.0781 22.7023 15.8892V15.8494C22.7023 15.3589 22.568 14.9777 22.2996 14.706C22.0344 14.4342 21.6317 14.2983 21.0915 14.2983C20.5313 14.2983 20.0922 14.4209 19.774 14.6662C19.4558 14.9115 19.2321 15.1733 19.1028 15.4517L17.9892 15.054C18.1881 14.59 18.4532 14.2287 18.7847 13.9702C19.1194 13.7083 19.484 13.526 19.8784 13.4233C20.2761 13.3172 20.6672 13.2642 21.0517 13.2642C21.297 13.2642 21.5787 13.294 21.8969 13.3537C22.2184 13.41 22.5283 13.5277 22.8266 13.7067C23.1282 13.8857 23.3784 14.1558 23.5773 14.517C23.7761 14.8783 23.8756 15.3622 23.8756 15.9688V21H22.7023V19.9659H22.6426C22.5631 20.1316 22.4305 20.3089 22.2449 20.4979C22.0593 20.6868 21.8124 20.8475 21.5041 20.9801C21.1959 21.1127 20.8197 21.179 20.3756 21.179ZM20.5545 20.125C21.0186 20.125 21.4097 20.0339 21.7278 19.8516C22.0493 19.6693 22.2913 19.4339 22.4537 19.1456C22.6194 18.8572 22.7023 18.554 22.7023 18.2358V17.1619C22.6526 17.2216 22.5432 17.2763 22.3741 17.326C22.2084 17.3724 22.0162 17.4138 21.7974 17.4503C21.582 17.4834 21.3715 17.5133 21.166 17.5398C20.9639 17.563 20.7998 17.5829 20.6739 17.5994C20.3689 17.6392 20.0839 17.7038 19.8187 17.7933C19.5569 17.8795 19.3448 18.0104 19.1824 18.1861C19.0233 18.3584 18.9437 18.5937 18.9437 18.892C18.9437 19.2997 19.0946 19.608 19.3962 19.8168C19.7011 20.0223 20.0872 20.125 20.5545 20.125Z" fill="white"/>
<path d="M42.3181 16.0732V22H41.0467V14.6035H42.2498L42.3181 16.0732ZM42.0584 18.0215L41.4705 18.001C41.475 17.4951 41.5411 17.028 41.6687 16.5996C41.7963 16.1667 41.9855 15.7907 42.2361 15.4717C42.4868 15.1527 42.7989 14.9066 43.1726 14.7334C43.5463 14.5557 43.9793 14.4668 44.4715 14.4668C44.8178 14.4668 45.1368 14.5169 45.4285 14.6172C45.7202 14.7129 45.9731 14.8656 46.1873 15.0752C46.4015 15.2848 46.5678 15.5537 46.6863 15.8818C46.8048 16.21 46.864 16.6064 46.864 17.0713V22H45.5994V17.1328C45.5994 16.7454 45.5333 16.4355 45.4012 16.2031C45.2735 15.9707 45.0913 15.8021 44.8543 15.6973C44.6173 15.5879 44.3393 15.5332 44.0203 15.5332C43.6466 15.5332 43.3344 15.5993 43.0838 15.7314C42.8331 15.8636 42.6326 16.0459 42.4822 16.2783C42.3318 16.5107 42.2224 16.7773 42.1541 17.0781C42.0903 17.3743 42.0584 17.6888 42.0584 18.0215ZM46.8504 17.3242L46.0027 17.584C46.0073 17.1784 46.0734 16.7887 46.201 16.415C46.3331 16.0413 46.5222 15.7087 46.7683 15.417C47.019 15.1253 47.3266 14.8952 47.6912 14.7266C48.0558 14.5534 48.4728 14.4668 48.9422 14.4668C49.3387 14.4668 49.6896 14.5192 49.9949 14.624C50.3048 14.7288 50.5646 14.8906 50.7742 15.1094C50.9884 15.3236 51.1502 15.5993 51.2596 15.9365C51.3689 16.2738 51.4236 16.6748 51.4236 17.1396V22H50.1521V17.126C50.1521 16.7113 50.086 16.39 49.9539 16.1621C49.8263 15.9297 49.644 15.7679 49.407 15.6768C49.1746 15.5811 48.8966 15.5332 48.573 15.5332C48.295 15.5332 48.0489 15.5811 47.8347 15.6768C47.6206 15.7725 47.4405 15.9046 47.2947 16.0732C47.1489 16.2373 47.0372 16.4264 46.9597 16.6406C46.8868 16.8548 46.8504 17.0827 46.8504 17.3242ZM57.699 20.7354V16.9277C57.699 16.6361 57.6398 16.3831 57.5213 16.1689C57.4073 15.9502 57.2342 15.7816 57.0017 15.6631C56.7693 15.5446 56.4822 15.4854 56.1404 15.4854C55.8214 15.4854 55.5411 15.54 55.2996 15.6494C55.0626 15.7588 54.8758 15.9023 54.739 16.0801C54.6069 16.2578 54.5408 16.4492 54.5408 16.6543H53.2762C53.2762 16.39 53.3445 16.1279 53.4812 15.8682C53.618 15.6084 53.8139 15.3737 54.0691 15.1641C54.3289 14.9499 54.6388 14.7812 54.9988 14.6582C55.3634 14.5306 55.769 14.4668 56.2156 14.4668C56.7534 14.4668 57.2273 14.5579 57.6375 14.7402C58.0522 14.9225 58.3758 15.1982 58.6082 15.5674C58.8452 15.932 58.9637 16.39 58.9637 16.9414V20.3867C58.9637 20.6328 58.9842 20.8949 59.0252 21.1729C59.0707 21.4508 59.1368 21.6901 59.2234 21.8906V22H57.9041C57.8403 21.8542 57.7902 21.6605 57.7537 21.4189C57.7172 21.1729 57.699 20.945 57.699 20.7354ZM57.9178 17.5156L57.9314 18.4043H56.6531C56.2931 18.4043 55.9718 18.4339 55.6892 18.4932C55.4067 18.5479 55.1697 18.6322 54.9783 18.7461C54.7869 18.86 54.6411 19.0036 54.5408 19.1768C54.4405 19.3454 54.3904 19.5436 54.3904 19.7715C54.3904 20.0039 54.4428 20.2158 54.5476 20.4072C54.6525 20.5986 54.8097 20.7513 55.0193 20.8652C55.2335 20.9746 55.4956 21.0293 55.8055 21.0293C56.1928 21.0293 56.5346 20.9473 56.8308 20.7832C57.1271 20.6191 57.3618 20.4186 57.5349 20.1816C57.7127 19.9447 57.8084 19.7145 57.8221 19.4912L58.3621 20.0996C58.3302 20.291 58.2436 20.5029 58.1023 20.7354C57.961 20.9678 57.7719 21.1911 57.5349 21.4053C57.3025 21.6149 57.0245 21.7904 56.701 21.9316C56.3819 22.0684 56.0219 22.1367 55.6209 22.1367C55.1196 22.1367 54.6798 22.0387 54.3015 21.8428C53.9278 21.6468 53.6362 21.3848 53.4265 21.0566C53.2215 20.724 53.1189 20.3525 53.1189 19.9424C53.1189 19.5459 53.1964 19.1973 53.3513 18.8965C53.5063 18.5911 53.7296 18.3382 54.0213 18.1377C54.3129 17.9326 54.6638 17.7777 55.074 17.6729C55.4842 17.568 55.9422 17.5156 56.448 17.5156H57.9178ZM63.9129 21.0977C64.2137 21.0977 64.4916 21.0361 64.7469 20.9131C65.0021 20.79 65.2117 20.6214 65.3758 20.4072C65.5398 20.1885 65.6332 19.9401 65.656 19.6621H66.8592C66.8364 20.0996 66.6883 20.5075 66.4148 20.8857C66.1459 21.2594 65.7928 21.5625 65.3553 21.7949C64.9178 22.0228 64.437 22.1367 63.9129 22.1367C63.3569 22.1367 62.8715 22.0387 62.4568 21.8428C62.0467 21.6468 61.7049 21.3779 61.4314 21.0361C61.1625 20.6943 60.9597 20.3024 60.823 19.8604C60.6909 19.4137 60.6248 18.9421 60.6248 18.4453V18.1582C60.6248 17.6615 60.6909 17.1921 60.823 16.75C60.9597 16.3034 61.1625 15.9092 61.4314 15.5674C61.7049 15.2256 62.0467 14.9567 62.4568 14.7607C62.8715 14.5648 63.3569 14.4668 63.9129 14.4668C64.4916 14.4668 64.9975 14.5853 65.4305 14.8223C65.8634 15.0547 66.2029 15.3737 66.449 15.7793C66.6997 16.1803 66.8364 16.6361 66.8592 17.1465H65.656C65.6332 16.8411 65.5467 16.5654 65.3963 16.3193C65.2504 16.0732 65.0499 15.8773 64.7947 15.7314C64.5441 15.5811 64.2501 15.5059 63.9129 15.5059C63.5255 15.5059 63.1997 15.5833 62.9353 15.7383C62.6756 15.8887 62.4682 16.0938 62.3133 16.3535C62.1629 16.6087 62.0535 16.8936 61.9851 17.208C61.9213 17.5179 61.8894 17.8346 61.8894 18.1582V18.4453C61.8894 18.7689 61.9213 19.0879 61.9851 19.4023C62.0489 19.7168 62.156 20.0016 62.3064 20.2568C62.4614 20.512 62.6687 20.7171 62.9285 20.8721C63.1928 21.0225 63.5209 21.0977 63.9129 21.0977ZM70.3592 21.2344L72.4168 14.6035H73.7703L70.8035 23.1416C70.7351 23.3239 70.644 23.5199 70.5301 23.7295C70.4207 23.9437 70.2794 24.1465 70.1062 24.3379C69.9331 24.5293 69.7234 24.6842 69.4773 24.8027C69.2358 24.9258 68.9464 24.9873 68.6092 24.9873C68.5089 24.9873 68.3813 24.9736 68.2263 24.9463C68.0714 24.9189 67.962 24.8962 67.8982 24.8779L67.8914 23.8525C67.9278 23.8571 67.9848 23.8617 68.0623 23.8662C68.1443 23.8753 68.2013 23.8799 68.2332 23.8799C68.5203 23.8799 68.7641 23.8411 68.9646 23.7637C69.1652 23.6908 69.3338 23.5654 69.4705 23.3877C69.6118 23.2145 69.7325 22.9753 69.8328 22.6699L70.3592 21.2344ZM68.8484 14.6035L70.7693 20.3457L71.0974 21.6787L70.1883 22.1436L67.4676 14.6035H68.8484Z" fill="white"/>
<defs>
<filter id="filter0_d_906_1675" x="21.109" y="5" width="24.1699" height="32" filterUnits="userSpaceOnUse" color-interpolation-filters="sRGB">
<feFlood flood-opacity="0" result="BackgroundImageFix"/>
<feColorMatrix in="SourceAlpha" type="matrix" values="0 0 0 0 0 0 0 0 0 0 0 0 0 0 0 0 0 0 127 0" result="hardAlpha"/>
<feOffset dy="4"/>
<feGaussianBlur stdDeviation="2"/>
<feComposite in2="hardAlpha" operator="out"/>
<feColorMatrix type="matrix" values="0 0 0 0 0 0 0 0 0 0 0 0 0 0 0 0 0 0 0.25 0"/>
<feBlend mode="normal" in2="BackgroundImageFix" result="effect1_dropShadow_906_1675"/>
<feBlend mode="normal" in="SourceGraphic" in2="effect1_dropShadow_906_1675" result="shape"/>
</filter>
<filter id="filter1_d_906_1675" x="23.495" y="2" width="19.398" height="24" filterUnits="userSpaceOnUse" color-interpolation-filters="sRGB">
<feFlood flood-opacity="0" result="BackgroundImageFix"/>
<feColorMatrix in="SourceAlpha" type="matrix" values="0 0 0 0 0 0 0 0 0 0 0 0 0 0 0 0 0 0 127 0" result="hardAlpha"/>
<feOffset/>
<feGaussianBlur stdDeviation="2.5"/>
<feComposite in2="hardAlpha" operator="out"/>
<feColorMatrix type="matrix" values="0 0 0 0 0 0 0 0 0 0 0 0 0 0 0 0 0 0 0.25 0"/>
<feBlend mode="normal" in2="BackgroundImageFix" result="effect1_dropShadow_906_1675"/>
<feBlend mode="normal" in="SourceGraphic" in2="effect1_dropShadow_906_1675" result="shape"/>
</filter>
<filter id="filter2_d_906_1675" x="25.499" y="13.547" width="15.39" height="18.453" filterUnits="userSpaceOnUse" color-interpolation-filters="sRGB">
<feFlood flood-opacity="0" result="BackgroundImageFix"/>
<feColorMatrix in="SourceAlpha" type="matrix" values="0 0 0 0 0 0 0 0 0 0 0 0 0 0 0 0 0 0 127 0" result="hardAlpha"/>
<feOffset/>
<feGaussianBlur stdDeviation="2.5"/>
<feComposite in2="hardAlpha" operator="out"/>
<feColorMatrix type="matrix" values="0 0 0 0 0 0 0 0 0 0 0 0 0 0 0 0 0 0 0.25 0"/>
<feBlend mode="normal" in2="BackgroundImageFix" result="effect1_dropShadow_906_1675"/>
<feBlend mode="normal" in="SourceGraphic" in2="effect1_dropShadow_906_1675" result="shape"/>
</filter>
<clipPath id="clip0_906_1675">
<rect width="16.1699" height="24" fill="white" transform="translate(25.109 5)"/>
</clipPath>
</defs>
</svg>
