<svg width="26" height="26" viewBox="0 0 26 26" fill="none" xmlns="http://www.w3.org/2000/svg">
<path d="M11.9167 1.08331V2.16665H7.58337C6.72142 2.16665 5.89477 2.50906 5.28528 3.11855C4.67578 3.72804 4.33337 4.55469 4.33337 5.41665V8.66665C4.33337 10.1032 4.90406 11.481 5.91988 12.4968C6.9357 13.5126 8.31345 14.0833 9.75004 14.0833H16.25C17.6866 14.0833 19.0644 13.5126 20.0802 12.4968C21.096 11.481 21.6667 10.1032 21.6667 8.66665V5.41665C21.6667 4.55469 21.3243 3.72804 20.7148 3.11855C20.1053 2.50906 19.2787 2.16665 18.4167 2.16665H14.0834V1.08331H11.9167ZM6.50004 5.41665C6.50004 5.12933 6.61418 4.85378 6.81734 4.65061C7.02051 4.44745 7.29606 4.33331 7.58337 4.33331H18.4167C18.704 4.33331 18.9796 4.44745 19.1827 4.65061C19.3859 4.85378 19.5 5.12933 19.5 5.41665V8.66665C19.5 9.5286 19.1576 10.3553 18.5481 10.9647C17.9386 11.5742 17.112 11.9166 16.25 11.9166H9.75004C8.88809 11.9166 8.06144 11.5742 7.45194 10.9647C6.84245 10.3553 6.50004 9.5286 6.50004 8.66665V5.41665ZM10.2917 9.74998C10.7227 9.74998 11.136 9.57878 11.4408 9.27403C11.7455 8.96928 11.9167 8.55596 11.9167 8.12498C11.9167 7.694 11.7455 7.28068 11.4408 6.97593C11.136 6.67118 10.7227 6.49998 10.2917 6.49998C9.86073 6.49998 9.4474 6.67118 9.14266 6.97593C8.83791 7.28068 8.66671 7.694 8.66671 8.12498C8.66671 8.55596 8.83791 8.96928 9.14266 9.27403C9.4474 9.57878 9.86073 9.74998 10.2917 9.74998ZM15.7084 9.74998C16.1393 9.74998 16.5527 9.57878 16.8574 9.27403C17.1622 8.96928 17.3334 8.55596 17.3334 8.12498C17.3334 7.694 17.1622 7.28068 16.8574 6.97593C16.5527 6.67118 16.1393 6.49998 15.7084 6.49998C15.2774 6.49998 14.8641 6.67118 14.5593 6.97593C14.2546 7.28068 14.0834 7.694 14.0834 8.12498C14.0834 8.55596 14.2546 8.96928 14.5593 9.27403C14.8641 9.57878 15.2774 9.74998 15.7084 9.74998ZM6.50004 23.8333C6.50004 22.1094 7.18486 20.4561 8.40385 19.2371C9.62283 18.0181 11.2761 17.3333 13 17.3333C14.7239 17.3333 16.3772 18.0181 17.5962 19.2371C18.8152 20.4561 19.5 22.1094 19.5 23.8333H21.6667C21.6667 21.5348 20.7536 19.3304 19.1283 17.7051C17.503 16.0797 15.2986 15.1666 13 15.1666C10.7015 15.1666 8.4971 16.0797 6.87178 17.7051C5.24647 19.3304 4.33337 21.5348 4.33337 23.8333H6.50004Z" fill="#264773"/>
</svg>
