<svg width="359" height="356" viewBox="0 0 359 356" fill="none" xmlns="http://www.w3.org/2000/svg">
<path d="M74.6007 228.774L67.7399 229.989L66.3922 222.713L58.2409 224.16L59.5885 231.437L52.7358 232.652L54.2632 240.912L61.1159 239.696L62.4636 246.973L70.6149 245.534L69.2672 238.249L76.1281 237.034L74.6007 228.774Z" stroke="#A7E2FF" stroke-linecap="round" stroke-linejoin="round"/>
<path d="M143.095 117.309L136.52 115.038L139.035 108.065L131.227 105.363L128.712 112.335L122.137 110.064L119.286 117.98L125.853 120.251L123.337 127.232L131.145 129.926L133.669 122.954L140.236 125.225L143.095 117.309Z" stroke="#A7E2FF" stroke-linecap="round" stroke-linejoin="round"/>
<path d="M308.932 200.644L302.773 203.834L299.236 197.293L291.91 201.083L295.447 207.624L289.288 210.815L293.299 218.235L299.457 215.045L302.994 221.577L310.32 217.787L306.783 211.247L312.942 208.056L308.932 200.644Z" stroke="#A7E2FF" stroke-linecap="round" stroke-linejoin="round"/>
<path d="M45.9484 211.438C48.7091 211.438 50.9471 209.248 50.9471 206.545C50.9471 203.842 48.7091 201.651 45.9484 201.651C43.1878 201.651 40.9498 203.842 40.9498 206.545C40.9498 209.248 43.1878 211.438 45.9484 211.438Z" stroke="#A7E2FF" stroke-linecap="round" stroke-linejoin="round"/>
<path d="M123.811 141.121C123.811 141.377 123.733 141.628 123.588 141.841C123.442 142.054 123.236 142.22 122.994 142.318C122.752 142.416 122.486 142.442 122.23 142.392C121.973 142.342 121.737 142.218 121.552 142.037C121.367 141.856 121.241 141.625 121.19 141.374C121.139 141.123 121.165 140.862 121.265 140.625C121.365 140.389 121.535 140.186 121.753 140.044C121.97 139.902 122.226 139.826 122.488 139.826C122.839 139.826 123.175 139.962 123.423 140.205C123.671 140.448 123.811 140.778 123.811 141.121Z" stroke="#A7E2FF" stroke-linecap="round" stroke-linejoin="round"/>
<path d="M63.264 118.9C63.264 119.804 62.99 120.689 62.4766 121.441C61.9633 122.193 61.2336 122.779 60.3799 123.125C59.5263 123.471 58.5869 123.562 57.6806 123.386C56.7744 123.209 55.9419 122.774 55.2885 122.134C54.6352 121.494 54.1902 120.679 54.0099 119.792C53.8297 118.905 53.9222 117.985 54.2758 117.149C54.6294 116.314 55.2282 115.599 55.9965 115.097C56.7648 114.594 57.6681 114.326 58.5921 114.326C59.8305 114.328 61.0176 114.811 61.8932 115.668C62.7689 116.525 63.2618 117.687 63.264 118.9Z" stroke="#A7E2FF" stroke-linecap="round" stroke-linejoin="round"/>
<path d="M269.114 180.853C269.114 181.366 268.959 181.867 268.668 182.293C268.377 182.719 267.964 183.051 267.48 183.247C266.997 183.443 266.465 183.494 265.951 183.394C265.438 183.294 264.966 183.048 264.596 182.685C264.226 182.323 263.974 181.861 263.872 181.359C263.77 180.856 263.822 180.335 264.023 179.862C264.223 179.389 264.562 178.984 264.997 178.699C265.433 178.415 265.944 178.263 266.468 178.263C267.169 178.263 267.843 178.536 268.339 179.021C268.835 179.507 269.114 180.166 269.114 180.853Z" stroke="#A7E2FF" stroke-linecap="round" stroke-linejoin="round"/>
<path d="M242.365 101.892C245.635 101.892 248.287 99.2966 248.287 96.0949C248.287 92.8932 245.635 90.2978 242.365 90.2978C239.095 90.2978 236.443 92.8932 236.443 96.0949C236.443 99.2966 239.095 101.892 242.365 101.892Z" stroke="#A7E2FF" stroke-linecap="round" stroke-linejoin="round"/>
<path d="M205.904 148.205C206.215 148.661 215.583 150.492 220.443 157.409C223.27 161.383 225.642 165.649 227.516 170.131C227.516 170.131 235.643 174.864 239.808 178.766C243.974 182.669 248.94 187.85 252.77 190.569C256.601 193.287 264.483 198.445 266.468 204.482C266.468 204.482 254.649 236.17 251.308 243.175C247.968 250.179 239.727 265.044 239.727 265.044L225.025 326.19H139.746L136.838 305.217C136.838 305.217 110.702 300.195 99.7815 290.824C99.7815 290.824 98.7524 267.635 103.318 246.949C107.884 226.263 123.411 183.252 133.931 170.115C133.931 170.115 150.732 162.247 165.556 159.72C165.556 159.72 175.177 152.275 181.475 151.484C187.772 150.692 205.904 148.205 205.904 148.205Z" fill="white"/>
<path d="M137.99 314.668C145.561 316.083 152.161 317.306 159.871 317.219C167.582 317.131 175.455 315.435 181.761 311.11C182.979 310.117 184.36 309.333 185.844 308.791C189.193 307.871 192.509 310.038 195.834 311.046C200.048 312.325 204.671 311.717 208.804 310.182C212.937 308.647 216.653 306.256 220.337 303.873C219.792 311.229 219.615 318.599 219.806 325.982L225.058 326.19L238.51 268.243C238.51 268.243 215.501 294.406 204.287 302.218L182.773 296.797C182.773 296.797 180.748 298.444 176.484 299.275C176.484 299.275 174.532 306.624 163.555 306.64C152.578 306.656 136.838 305.216 136.838 305.216L137.99 314.668Z" fill="#A7E2FF"/>
<path opacity="0.5" d="M137.99 314.668C145.561 316.083 152.161 317.306 159.871 317.219C167.582 317.131 175.455 315.435 181.761 311.11C182.979 310.117 184.36 309.333 185.844 308.791C189.193 307.871 192.509 310.038 195.834 311.046C200.048 312.325 204.671 311.717 208.804 310.182C212.937 308.647 216.653 306.256 220.337 303.873C219.792 311.229 219.615 318.599 219.806 325.982L225.058 326.19L238.51 268.243C238.51 268.243 215.501 294.406 204.287 302.218L182.773 296.797C182.773 296.797 180.748 298.444 176.484 299.275C176.484 299.275 174.532 306.624 163.555 306.64C152.578 306.656 136.838 305.216 136.838 305.216L137.99 314.668Z" fill="white"/>
<path d="M115.945 206.545C115.945 206.545 105.956 254.018 106.463 270.322C106.463 270.322 120.037 266.595 129.512 270.322C129.512 270.322 113.389 268.562 106.446 275.799C99.5039 283.035 120.871 302.05 163.62 298.188C163.62 298.188 172.147 300.803 176.476 299.267C176.476 299.267 175.316 306.832 163.547 306.632C151.826 306.176 117.538 305.896 99.7734 290.831C99.7816 290.839 97.5436 247.197 115.945 206.545Z" fill="#A7E2FF"/>
<path opacity="0.6" d="M115.945 206.545C115.945 206.545 105.956 254.018 106.463 270.322C106.463 270.322 120.037 266.595 129.512 270.322C129.512 270.322 113.389 268.562 106.446 275.799C99.5039 283.035 120.871 302.05 163.62 298.188C163.62 298.188 172.147 300.803 176.476 299.267C176.476 299.267 175.316 306.832 163.547 306.632C151.826 306.176 117.538 305.896 99.7734 290.831C99.7816 290.839 97.5436 247.197 115.945 206.545Z" fill="white"/>
<path d="M136.373 215.644C136.373 215.644 139.321 236.666 144.083 241.064C148.845 245.462 171.036 244.022 179.825 248.764C179.825 248.764 188.099 234.731 203.062 225.951L182.773 257.224L165.237 253.17L143.83 249.971L142.033 254.017H138.815C138.815 254.017 138.456 231.581 136.373 215.644Z" fill="#A7E2FF"/>
<path opacity="0.5" d="M136.373 215.644C136.373 215.644 139.321 236.666 144.083 241.064C148.845 245.462 171.036 244.022 179.825 248.764C179.825 248.764 188.099 234.731 203.062 225.951L182.773 257.224L165.237 253.17L143.83 249.971L142.033 254.017H138.815C138.815 254.017 138.456 231.581 136.373 215.644Z" fill="white"/>
<path d="M220.247 172.825C229.419 178.111 230.448 184.068 232.335 188.322C227.565 189.249 222.632 190.241 218.695 193.031C213.794 196.518 211.14 202.291 209.082 207.896C207.134 213.2 205.498 218.609 204.181 224.096C208.614 216.256 214.916 209.579 222.55 204.634C226.952 201.787 232.392 199.492 237.415 201.099C233.201 202.851 228.431 205.217 227.54 209.615C227.365 210.345 227.397 211.108 227.63 211.822C228.382 213.893 231.012 214.453 233.005 215.46C236.892 217.419 238.918 221.857 239.09 226.159C239.261 230.461 237.913 234.619 236.582 238.689C235.411 242.255 234.241 245.822 233.07 249.388C231.575 253.946 230.056 258.567 227.353 262.565C224.649 266.563 220.59 269.914 215.763 270.697C213.745 271.078 211.656 270.847 209.776 270.034C208.351 269.275 207.026 268.349 205.831 267.275C200.04 262.696 193.081 259.755 185.706 258.767C195.196 264.908 199.689 276.063 203.626 286.514C201.818 283.416 199.213 280.835 196.07 279.029C195.265 278.48 194.308 278.184 193.326 278.182C190.745 278.382 189.928 281.604 188.376 283.619C186.514 286.018 183.108 286.873 180.054 286.49C176.999 286.106 174.189 284.706 171.445 283.291L136.724 265.764L134.274 272.96C134.274 272.96 161.929 294.55 204.303 302.186C204.303 302.186 231.829 280.892 241.581 262.014C251.333 243.135 266.484 204.442 266.484 204.442C266.484 204.442 260.938 194.159 251.431 188.793C251.431 188.793 244.333 185.507 242.839 181.445C241.344 177.383 228.006 170.371 228.006 170.371C228.006 170.371 229.738 174.704 220.247 172.825Z" fill="#A7E2FF"/>
<path opacity="0.6" d="M220.247 172.825C229.419 178.111 230.448 184.068 232.335 188.322C227.565 189.249 222.632 190.241 218.695 193.031C213.794 196.518 211.14 202.291 209.082 207.896C207.134 213.2 205.498 218.609 204.181 224.096C208.614 216.256 214.916 209.579 222.55 204.634C226.952 201.787 232.392 199.492 237.415 201.099C233.201 202.851 228.431 205.217 227.54 209.615C227.365 210.345 227.397 211.108 227.63 211.822C228.382 213.893 231.012 214.453 233.005 215.46C236.892 217.419 238.918 221.857 239.09 226.159C239.261 230.461 237.913 234.619 236.582 238.689C235.411 242.255 234.241 245.822 233.07 249.388C231.575 253.946 230.056 258.567 227.353 262.565C224.649 266.563 220.59 269.914 215.763 270.697C213.745 271.078 211.656 270.847 209.776 270.034C208.351 269.275 207.026 268.349 205.831 267.275C200.04 262.696 193.081 259.755 185.706 258.767C195.196 264.908 199.689 276.063 203.626 286.514C201.818 283.416 199.213 280.835 196.07 279.029C195.265 278.48 194.308 278.184 193.326 278.182C190.745 278.382 189.928 281.604 188.376 283.619C186.514 286.018 183.108 286.873 180.054 286.49C176.999 286.106 174.189 284.706 171.445 283.291L136.724 265.764L134.274 272.96C134.274 272.96 161.929 294.55 204.303 302.186C204.303 302.186 231.829 280.892 241.581 262.014C251.333 243.135 266.484 204.442 266.484 204.442C266.484 204.442 260.938 194.159 251.431 188.793C251.431 188.793 244.333 185.507 242.839 181.445C241.344 177.383 228.006 170.371 228.006 170.371C228.006 170.371 229.738 174.704 220.247 172.825Z" fill="white"/>
<path d="M217.331 99.2213C217.331 99.2213 219.185 78.0557 209.866 76.0327C200.546 74.0097 195.311 65.6378 195.311 65.6378L162.248 74.6734L157.119 94.1358L160.386 103.987C160.386 103.987 161.072 113.126 161.203 117.644C161.333 122.162 161.203 125.64 164.698 131.126C168.194 136.611 171.445 142.056 179 146.798V159.264C179 159.264 174.328 172.609 176.909 180.797C176.909 180.797 178.453 182.397 182.716 179.998C186.98 177.599 205.218 165.669 211.581 153.211L213.557 121.538C213.557 121.538 218.809 122.338 221.072 117.652C224.396 113.071 224.265 107.729 222.975 103.379C221.684 99.0294 216.13 101.844 216.13 101.844L217.331 99.2213Z" fill="#FFBE9D"/>
<path d="M179.359 130.254C180.294 129.258 181.446 128.48 182.73 127.979C184.014 127.478 185.397 127.266 186.776 127.36C186.776 127.36 190.753 121.211 194.943 122.338C194.943 122.338 196.234 128.855 191.211 131.422C184.677 134.756 179.359 130.254 179.359 130.254Z" fill="#BE8B87"/>
<path d="M167.075 71.9788C167.075 71.9788 159.161 82.1578 159.618 92.7686C160.075 103.379 161.652 110.904 161.194 119.092C160.737 127.28 169.558 140.993 178.6 146.518C185.354 150.652 193.824 149.949 200.399 145.719C207.75 140.921 211.793 132.301 213.272 124.025C213.419 123.226 213.533 122.426 213.615 121.562" stroke="#263238" stroke-linecap="round" stroke-linejoin="round"/>
<path d="M178.6 146.526C178.6 146.526 179.882 157.993 178.6 161.919C177.187 166.229 175.48 176.264 176.966 180.797C178.453 185.331 206.264 166.276 211.638 153.203C211.638 153.203 212.381 127.799 214.235 121.45" stroke="#263238" stroke-linecap="round" stroke-linejoin="round"/>
<path d="M177.832 129.974C177.832 129.974 190.484 133.477 195.662 120.691" stroke="#263238" stroke-linecap="round" stroke-linejoin="round"/>
<path d="M178.853 149.285C178.853 149.285 181.548 157.465 187.364 157.953C193.179 158.44 207.726 147.03 212.684 133.589V126.864C212.684 126.864 208.6 144.455 196.642 147.654C184.685 150.852 179.09 146.782 179.09 146.782L178.853 149.285Z" fill="#263238"/>
<path d="M194.935 122.338C189.316 121.954 186.767 127.36 186.767 127.36C185.382 127.194 183.977 127.373 182.681 127.878C181.385 128.384 180.24 129.201 179.351 130.254C180.736 131.47 182.438 132.286 184.268 132.61C186.098 132.935 187.984 132.756 189.716 132.093C196.103 129.918 194.935 122.338 194.935 122.338Z" stroke="#263238" stroke-linecap="round" stroke-linejoin="round"/>
<path d="M180.846 98.222C180.916 100.759 180.801 103.297 180.503 105.818C180.201 108.081 179.131 110.248 178.24 112.375C177.424 114.31 176.06 117.285 177.195 119.324C178.485 121.635 182.773 119.324 182.773 119.324" stroke="#263238" stroke-linecap="round" stroke-linejoin="round"/>
<path d="M185.411 118.844C186.857 119.036 188.907 118.844 189.316 116.389" stroke="#263238" stroke-linecap="round" stroke-linejoin="round"/>
<path d="M190.083 95.1677C191.481 93.8623 193.338 93.134 195.27 93.134C197.201 93.134 199.059 93.8623 200.456 95.1677" stroke="#263238" stroke-width="2" stroke-linecap="round" stroke-linejoin="round"/>
<path d="M173.601 97.1669C173.601 97.1669 169.77 92.3683 164.755 97.1669" stroke="#263238" stroke-width="2" stroke-linecap="round" stroke-linejoin="round"/>
<path d="M210.609 109.297C210.609 109.297 214.979 99.0216 220.68 101.229C224.608 102.756 224.845 109.392 222.762 114.022C220.68 118.652 219.634 123.37 212.692 120.731" stroke="#263238" stroke-linecap="round" stroke-linejoin="round"/>
<path d="M211.385 107.721C211.385 107.721 207.187 106.266 206.411 99.5892C205.635 92.9125 209.817 86.2278 208.265 81.4301C206.713 76.6325 194.486 79.0313 191.701 70.6674C191.701 70.6674 182.52 77.3681 164.747 75.9289C164.747 75.9289 160.998 82.1818 160.345 86.0039C159.47 91.98 159.492 98.0492 160.41 104.019C160.41 104.227 160.484 104.427 160.525 104.635C161.799 111.144 155.453 95.7751 155.624 89.2103C155.796 82.6455 151.753 74.3056 157.021 68.0927C162.289 61.8797 181.605 58.2415 185.412 55.323C189.218 52.4044 196.618 60.1766 205.169 63.0392C213.721 65.9018 220.81 69.3161 219.732 81.1903C218.654 93.0644 219.789 94.6557 219.838 100.909C219.838 100.925 215.885 99.4693 211.385 107.721Z" fill="#263238"/>
<path d="M195.286 103.819C195.286 105.418 194.657 106.746 193.873 106.746C193.089 106.746 192.469 105.434 192.469 103.819C192.469 102.204 193.097 100.9 193.873 100.9C194.649 100.9 195.286 102.22 195.286 103.819Z" fill="#263238"/>
<path d="M173.601 103.819C173.601 105.418 172.972 106.746 172.196 106.746C171.42 106.746 170.792 105.434 170.792 103.819C170.792 102.204 171.42 100.9 172.196 100.9C172.972 100.9 173.601 102.22 173.601 103.819Z" fill="#263238"/>
<path d="M190.083 107.721C190.083 107.721 192.999 110.752 196.691 111.184" stroke="#263238" stroke-linecap="round" stroke-linejoin="round"/>
<path d="M170.22 111.184C170.22 111.184 175.553 110.816 176.754 107.721" stroke="#263238" stroke-linecap="round" stroke-linejoin="round"/>
<path d="M182.618 182.74C186.588 180.27 191.84 181.197 196.185 182.948C198.57 183.916 200.84 185.131 203.217 186.147C204.392 186.655 205.604 187.078 206.844 187.41C209.825 188.17 208.755 184.548 208.583 182.924C208.338 180.597 208.167 178.263 207.881 175.952C207.764 175.473 207.821 174.97 208.044 174.528C208.337 174.173 208.747 173.927 209.204 173.833C214.44 172.234 220.083 172.937 225.539 173.033C226.035 173.091 226.536 172.999 226.977 172.769C227.794 172.25 227.704 171.074 227.483 170.147C225.597 162.246 218.94 154.386 211.703 150.436" stroke="#263238" stroke-linecap="round" stroke-linejoin="round"/>
<path d="M179.057 151.716C175.455 153.187 171.755 154.714 168.652 156.969C167.526 157.773 166.488 158.689 165.556 159.704C164.805 160.403 164.333 161.341 164.225 162.35C164.245 162.82 164.372 163.279 164.597 163.694C164.821 164.109 165.138 164.47 165.523 164.749C166.072 165.191 166.675 165.562 167.32 165.853C168.823 166.548 170.587 167.228 171.224 168.707C171.379 169.017 171.436 169.365 171.388 169.707C171.307 170.007 171.149 170.282 170.93 170.506C169.689 171.986 167.5 173.129 167.663 175.04C167.77 176.52 169.297 177.439 170.653 178.095C172.009 178.75 173.593 179.43 174.059 180.845" stroke="#263238" stroke-linecap="round" stroke-linejoin="round"/>
<path d="M157.731 76.7365C158.262 73.5381 161.676 71.4751 164.96 70.9554C168.243 70.4356 171.616 70.9554 174.924 70.6755C177.691 70.4079 180.366 69.5619 182.77 68.1949C185.174 66.8278 187.25 64.9715 188.858 62.7514" stroke="white" stroke-linecap="round" stroke-linejoin="round"/>
<path d="M161.448 67.749C167.377 64.3186 175.708 67.8849 181.491 64.2227C183.128 63.0563 184.552 61.6292 185.706 60.0008" stroke="white" stroke-linecap="round" stroke-linejoin="round"/>
<path d="M237.088 198.973C215.852 203.122 207.93 218.419 207.93 218.419L182.773 257.208" stroke="#263238" stroke-linecap="round" stroke-linejoin="round"/>
<path d="M219.136 194.783C220.898 193.185 222.894 191.853 225.058 190.833" stroke="#263238" stroke-linecap="round" stroke-linejoin="round"/>
<path d="M204.287 224.064C204.287 224.064 206.966 210.055 214.66 199.732" stroke="#263238" stroke-linecap="round" stroke-linejoin="round"/>
<path d="M138.815 253.954C138.815 253.954 137.712 211.039 133.914 204.482" stroke="#263238" stroke-linecap="round" stroke-linejoin="round"/>
<path d="M227.516 170.131C227.516 170.131 239.767 177.327 245.207 184.092C250.647 190.856 263.503 195.35 266.443 204.482C266.443 204.482 249.512 256.712 231.771 275.591C214.031 294.47 204.263 302.218 204.263 302.218C204.263 302.218 161.586 294.957 133.906 272.201L143.805 249.932C143.805 249.932 171.714 253.386 182.749 257.224C193.783 261.062 204.263 284.307 204.263 284.307" stroke="#263238" stroke-linecap="round" stroke-linejoin="round"/>
<path d="M182.773 257.224C182.773 257.224 202.31 260.942 208.657 269.65" stroke="#263238" stroke-linecap="round" stroke-linejoin="round"/>
<path d="M238.992 266.18L225.058 326.19H139.746L136.838 305.216" stroke="#263238" stroke-linecap="round" stroke-linejoin="round"/>
<path d="M176.484 299.275C171.772 308.727 165.556 306.64 165.556 306.64C117.489 308.423 99.7817 290.84 99.7817 290.84C99.7817 290.84 97.3314 266.108 106.781 232.732C116.231 199.356 133.931 170.131 133.931 170.131C141.78 165.021 159.291 161.031 164.233 159.976L165.556 159.704" stroke="#263238" stroke-linecap="round" stroke-linejoin="round"/>
<path d="M165.58 306.64C165.58 306.64 163.04 306.232 163.685 289.744" stroke="#263238" stroke-linecap="round" stroke-linejoin="round"/>
<path d="M135.229 273.256C135.229 273.256 123.223 269.114 108.35 279.189" stroke="#263238" stroke-linecap="round" stroke-linejoin="round"/>
<path d="M111.045 269.65C111.045 269.65 126.776 265.067 133.914 272.409" stroke="#263238" stroke-linecap="round" stroke-linejoin="round"/>
<path d="M132.215 271.993L134.257 272.992L142.033 253.977C142.033 253.977 133.98 252.69 121.222 268.242C125.206 268.288 129.065 269.605 132.215 271.993Z" fill="#FFBE9D" stroke="#263238" stroke-miterlimit="10"/>
<path d="M163.661 289.744V298.196C163.661 298.196 174.663 301.394 182.806 296.797L163.661 289.744Z" fill="#FFBE9D" stroke="#263238" stroke-miterlimit="10"/>
<path d="M223.293 172.945C223.301 173.101 223.285 173.258 223.244 173.409C222.901 174.728 214.513 205.729 187.666 219.522C187.432 219.645 187.171 219.708 186.906 219.706C186.541 219.706 186.187 219.586 185.9 219.366C185.612 219.145 185.409 218.837 185.321 218.49C185.234 218.143 185.268 217.778 185.417 217.452C185.567 217.126 185.824 216.858 186.147 216.692C210.65 204.114 219.283 175.448 220.034 172.809L223.293 172.945Z" fill="#263238"/>
<path d="M165.523 164.725C161.279 174.216 158.989 184.432 158.785 194.791C158.785 195.63 158.785 196.486 158.785 197.357C158.785 197.573 158.785 197.789 158.785 198.005C158.541 198.013 158.298 198.037 158.058 198.077C157.174 198.214 156.317 198.483 155.518 198.877C155.518 197.701 155.518 196.558 155.518 195.43C155.869 177.487 161.341 165.277 164.257 160L165.58 159.728C164.83 160.427 164.358 161.365 164.249 162.374C164.273 162.834 164.4 163.282 164.62 163.688C164.84 164.094 165.149 164.448 165.523 164.725Z" fill="#263238"/>
<path d="M197.688 212.31C199.599 214.909 198.031 219.227 194.176 221.953C190.32 224.68 185.648 224.776 183.729 222.177C181.81 219.578 183.378 215.261 187.233 212.534C191.088 209.807 195.801 209.711 197.688 212.31Z" fill="white" stroke="#263238" stroke-linecap="round" stroke-linejoin="round"/>
<path d="M192.934 210.767C194.29 212.606 193.179 215.66 190.484 217.587C187.788 219.514 184.448 219.586 183.133 217.747C181.818 215.908 182.888 212.854 185.583 210.927C188.279 209 191.578 208.936 192.934 210.767Z" fill="white" stroke="#263238" stroke-linecap="round" stroke-linejoin="round"/>
<path d="M171.347 243.223C170.999 243.449 170.576 243.537 170.164 243.467C169.753 243.397 169.384 243.176 169.134 242.848C168.884 242.52 168.772 242.111 168.82 241.705C168.869 241.299 169.074 240.926 169.395 240.664C169.534 240.552 175.014 235.986 172.613 220.61C172.409 219.307 172.147 217.915 171.796 216.452C170.759 211.79 169.158 205.889 165.883 201.555C165.104 200.412 164.037 199.485 162.785 198.863C161.533 198.241 160.139 197.946 158.736 198.005C158.492 198.013 158.25 198.037 158.009 198.077C157.125 198.214 156.269 198.483 155.469 198.877C153.029 200.11 151.177 202.228 150.307 204.778L150.013 205.577C148.161 210.481 146.646 215.5 145.48 220.602C144.173 226.879 143.732 233.46 146.052 238.057C146.673 239.319 147.559 240.438 148.651 241.343C149.742 242.248 151.016 242.919 152.39 243.311C152.759 243.429 153.072 243.673 153.274 243.997C153.476 244.322 153.554 244.706 153.493 245.081C153.432 245.456 153.237 245.798 152.942 246.045C152.647 246.292 152.272 246.428 151.883 246.429C151.711 246.429 151.54 246.402 151.377 246.349C149.591 245.824 147.935 244.942 146.515 243.758C145.095 242.575 143.942 241.115 143.128 239.473C140.514 234.299 140.857 227.255 142.18 220.602C143.353 215.131 144.942 209.753 146.934 204.514L147.228 203.714C147.87 201.811 148.945 200.076 150.373 198.639C151.801 197.203 153.543 196.103 155.469 195.422C156.136 195.196 156.822 195.03 157.519 194.927C157.936 194.871 158.336 194.831 158.761 194.807C160.672 194.755 162.567 195.174 164.271 196.025C165.974 196.875 167.433 198.131 168.513 199.676C172.156 204.474 173.887 210.815 174.99 215.788C175.374 217.499 175.668 219.107 175.888 220.626C178.469 237.865 171.666 242.999 171.347 243.223Z" fill="#263238" stroke="#263238" stroke-miterlimit="10"/>
<path d="M150.74 246.15C150.74 246.15 156.661 248.549 158.164 246.15C159.667 243.751 158.45 242.623 156.4 242.431C154.357 242.329 152.309 242.329 150.266 242.431L150.74 246.15Z" fill="#263238" stroke="#263238" stroke-miterlimit="10"/>
<path d="M153.46 245.35C153.353 245.67 153.145 245.95 152.866 246.148C152.588 246.346 152.252 246.453 151.908 246.453C151.736 246.453 151.565 246.426 151.401 246.373C149.615 245.848 147.96 244.966 146.54 243.782C145.12 242.599 143.966 241.139 143.152 239.497C140.538 234.323 140.881 227.279 142.205 220.626H145.472C144.165 226.903 143.724 233.484 146.043 238.081C146.665 239.343 147.55 240.462 148.642 241.368C149.734 242.273 151.008 242.943 152.381 243.335C152.588 243.397 152.78 243.498 152.946 243.633C153.113 243.768 153.25 243.935 153.35 244.122C153.451 244.309 153.512 244.514 153.531 244.725C153.549 244.936 153.525 245.148 153.46 245.35Z" fill="white" stroke="#263238" stroke-linecap="round" stroke-linejoin="round"/>
<path d="M165.891 241.488C165.645 241.774 165.463 242.108 165.357 242.467C165.252 242.827 165.225 243.204 165.278 243.575C165.441 244.122 165.796 244.597 166.279 244.915C166.763 245.234 167.345 245.376 167.925 245.318C169.085 245.167 170.145 244.596 170.898 243.719C171.714 242.823 174.549 236.962 171.927 237.969C170.024 238.673 167.165 239.864 165.891 241.488Z" fill="#263238" stroke="#263238" stroke-miterlimit="10"/>
<path d="M171.347 243.223C170.999 243.449 170.576 243.537 170.164 243.467C169.752 243.397 169.384 243.176 169.134 242.848C168.884 242.52 168.771 242.111 168.82 241.705C168.869 241.299 169.074 240.926 169.395 240.664C169.534 240.552 175.014 235.986 172.613 220.61H175.88C178.469 237.866 171.665 242.999 171.347 243.223Z" fill="white" stroke="#263238" stroke-linecap="round" stroke-linejoin="round"/>
<path opacity="0.2" d="M186 101.892C186 101.892 196.283 96.6628 205.733 101.892C205.733 101.892 205.888 109.608 202.319 112.783C201.053 113.91 195.254 114.102 193.056 113.91C184.137 113.119 186 101.892 186 101.892Z" fill="white"/>
<path opacity="0.2" d="M179.547 101.892C179.547 101.892 169.264 96.6628 159.822 101.892C159.822 101.892 159.667 109.608 163.228 112.783C164.494 113.91 170.301 114.102 172.49 113.91C181.409 113.119 179.547 101.892 179.547 101.892Z" fill="white"/>
<path d="M186 101.892C186 101.892 196.283 96.6628 205.733 101.892C205.733 101.892 205.888 109.608 202.319 112.783C201.053 113.91 195.254 114.102 193.056 113.91C184.137 113.119 186 101.892 186 101.892Z" stroke="#263238" stroke-miterlimit="10"/>
<path d="M179.547 101.892C179.547 101.892 169.264 96.6628 159.822 101.892C159.822 101.892 159.667 109.608 163.228 112.783C164.494 113.91 170.301 114.102 172.49 113.91C181.409 113.119 179.547 101.892 179.547 101.892Z" stroke="#263238" stroke-miterlimit="10"/>
<path d="M179.547 101.892C179.547 101.892 181.851 100.237 186 101.892" stroke="#263238" stroke-miterlimit="10"/>
<path d="M205.733 101.892L210.029 103.844" stroke="#263238" stroke-miterlimit="10"/>
<path d="M41.2847 347.476L71.5133 319.521H311.431L329.596 347.476H41.2847Z" fill="white" stroke="#263238" stroke-linecap="round" stroke-linejoin="round"/>
<path d="M329.596 347.476H41.2847V355H329.596V347.476Z" fill="#263238" stroke="#263238" stroke-linecap="round" stroke-linejoin="round"/>
<path d="M71.5132 340.567V334.77H118.886V340.567H109.746H71.5132Z" fill="white" stroke="#263238" stroke-miterlimit="10"/>
<path d="M71.5132 334.77L99.4957 316.395L136.838 317.258L118.886 334.77H71.5132Z" fill="white" stroke="#263238" stroke-linecap="round" stroke-linejoin="round"/>
<path d="M118.886 340.567L136.838 322.96V317.259L118.886 334.77V340.567Z" fill="white" stroke="#263238" stroke-linecap="round" stroke-linejoin="round"/>
<path d="M117.603 333.307C117.603 333.307 113.822 334.042 113.822 337.249C113.822 340.455 117.089 341.399 117.089 341.399" stroke="#263238" stroke-width="2" stroke-linecap="round" stroke-linejoin="round"/>
<path d="M113.822 333.307C113.822 333.307 110.04 334.042 110.04 337.249C110.04 340.455 113.307 341.399 113.307 341.399" stroke="#263238" stroke-width="2" stroke-linecap="round" stroke-linejoin="round"/>
<path d="M110.04 333.307C110.04 333.307 106.258 334.042 106.258 337.249C106.258 340.455 109.525 341.399 109.525 341.399" stroke="#263238" stroke-width="2" stroke-linecap="round" stroke-linejoin="round"/>
<path d="M106.259 333.307C106.259 333.307 102.477 334.042 102.477 337.249C102.477 340.455 105.744 341.399 105.744 341.399" stroke="#263238" stroke-width="2" stroke-linecap="round" stroke-linejoin="round"/>
<path d="M102.477 333.307C102.477 333.307 98.6953 334.042 98.6953 337.249C98.6953 340.455 101.962 341.399 101.962 341.399" stroke="#263238" stroke-width="2" stroke-linecap="round" stroke-linejoin="round"/>
<path d="M98.6952 333.307C98.6952 333.307 94.9136 334.042 94.9136 337.249C94.9136 340.455 98.1806 341.399 98.1806 341.399" stroke="#263238" stroke-width="2" stroke-linecap="round" stroke-linejoin="round"/>
<path d="M94.9136 333.307C94.9136 333.307 91.132 334.042 91.132 337.249C91.132 340.455 94.399 341.399 94.399 341.399" stroke="#263238" stroke-width="2" stroke-linecap="round" stroke-linejoin="round"/>
<path d="M91.1321 333.307C91.1321 333.307 87.3505 334.042 87.3505 337.249C87.3505 340.455 90.6175 341.399 90.6175 341.399" stroke="#263238" stroke-width="2" stroke-linecap="round" stroke-linejoin="round"/>
<path d="M86.8848 333.307C86.8848 333.307 83.1031 334.042 83.1031 337.249C83.1031 340.455 86.3702 341.399 86.3702 341.399" stroke="#263238" stroke-width="2" stroke-linecap="round" stroke-linejoin="round"/>
<path d="M82.6294 333.307C82.6294 333.307 78.8478 334.042 78.8478 337.249C78.8478 340.455 82.1149 341.399 82.1149 341.399" stroke="#263238" stroke-width="2" stroke-linecap="round" stroke-linejoin="round"/>
<path d="M77.9004 333.307C77.9004 333.307 74.1188 334.042 74.1188 337.249C74.1188 340.455 77.3858 341.399 77.3858 341.399" stroke="#263238" stroke-width="2" stroke-linecap="round" stroke-linejoin="round"/>
<path d="M101.873 320.897C99.2638 322.305 97.1961 324.509 95.9836 327.174C99.4222 326.11 102.142 323.711 104.748 321.313L101.922 328.173C103.223 328.07 104.48 327.668 105.593 326.999C106.705 326.331 107.641 325.416 108.325 324.327C108.101 324.422 107.9 324.561 107.735 324.737C107.57 324.913 107.445 325.121 107.368 325.347C107.291 325.574 107.264 325.814 107.288 326.051C107.312 326.289 107.387 326.519 107.508 326.726C109.877 326.39 111.388 324.151 112.58 322.12C112.799 323.25 112.884 324.401 112.834 325.55C114.814 325.828 116.835 325.577 118.682 324.823" stroke="#263238" stroke-width="0.75" stroke-linecap="round" stroke-linejoin="round"/>
<path d="M309.83 291.519H227.491V335.777H309.83V291.519Z" fill="white" stroke="#263238" stroke-linecap="round" stroke-linejoin="round"/>
<path d="M227.173 335.77L213.933 323.448V279.189L227.173 291.519V335.77Z" fill="white" stroke="#263238" stroke-linecap="round" stroke-linejoin="round"/>
<path d="M309.83 291.519L296.59 279.189H214.26L227.492 291.519H309.83Z" fill="white" stroke="#263238" stroke-linecap="round" stroke-linejoin="round"/>
<path d="M279.552 308.119H272.275V300.667H262.016V308.119H254.077V318.162H262.016V325.606H272.275V318.162H279.552V308.119Z" fill="#A7E2FF" stroke="#263238" stroke-miterlimit="10"/>
<path d="M267.946 291.519L254.706 279.189" stroke="#263238" stroke-linecap="round" stroke-linejoin="round"/>
<path d="M93.9061 103.415C103.51 94.0128 103.51 78.7686 93.9061 69.3662C84.302 59.9639 68.7307 59.9639 59.1265 69.3663C49.5224 78.7686 49.5224 94.0128 59.1265 103.415C68.7307 112.817 84.302 112.817 93.9061 103.415Z" fill="white" stroke="#263238" stroke-linecap="round" stroke-linejoin="round"/>
<path d="M96.9718 82.7014C96.9716 84.3131 96.4554 85.8841 95.4958 87.1936C94.5361 88.5031 93.1814 89.4852 91.622 90.0018L80.6365 93.6241L67.266 98.0459C65.2963 98.6798 63.1506 98.5259 61.2964 97.6177C59.4421 96.7095 58.0298 95.1206 57.367 93.1973C56.7042 91.274 56.8448 89.1722 57.7582 87.35C58.6715 85.5277 60.2835 84.1327 62.2428 83.469L74.3882 79.471L86.5907 75.473C87.7712 75.0842 89.0292 74.9755 90.261 75.1558C91.4929 75.336 92.6633 75.8001 93.6762 76.5098C94.689 77.2195 95.5152 78.1545 96.0867 79.2379C96.6583 80.3213 96.9588 81.5221 96.9637 82.7414L96.9718 82.7014Z" fill="white"/>
<path d="M96.9721 82.7014C96.9719 84.3131 96.4557 85.8841 95.496 87.1936C94.5364 88.5031 93.1817 89.4852 91.6223 90.0018L80.6367 93.6241C80.3438 88.3257 78.128 83.3038 74.3885 79.463L86.591 75.465C87.7715 75.0762 89.0295 74.9675 90.2613 75.1478C91.4931 75.328 92.6636 75.7921 93.6764 76.5018C94.6893 77.2115 95.5154 78.1465 96.087 79.2299C96.6585 80.3133 96.9591 81.5141 96.9639 82.7334L96.9721 82.7014Z" fill="#A7E2FF"/>
<path d="M96.9718 82.7014C96.9716 84.3131 96.4554 85.8841 95.4958 87.1936C94.5361 88.5031 93.1814 89.4852 91.622 90.0018L80.6365 93.6241L67.266 98.0459C65.2963 98.6798 63.1506 98.5259 61.2964 97.6177C59.4421 96.7095 58.0298 95.1206 57.367 93.1973C56.7042 91.274 56.8448 89.1722 57.7582 87.35C58.6715 85.5277 60.2835 84.1327 62.2428 83.469L74.3882 79.471L86.5907 75.473C87.7712 75.0842 89.0292 74.9755 90.261 75.1558C91.4929 75.336 92.6634 75.8001 93.6762 76.5098C94.689 77.2195 95.5152 78.1545 96.0867 79.2379C96.6583 80.3213 96.9588 81.5221 96.9637 82.7414L96.9718 82.7014Z" stroke="#263238" stroke-linecap="round" stroke-linejoin="round"/>
<path d="M80.6367 93.6241C80.3868 88.3159 78.1647 83.28 74.3885 79.463" stroke="#263238" stroke-linecap="round" stroke-linejoin="round"/>
<path d="M94.3418 79.8308C94.8581 80.6814 95.1189 81.6571 95.0941 82.646" stroke="white" stroke-linecap="round" stroke-linejoin="round"/>
<path d="M77.4921 80.6314L87.2933 77.4323C88.1724 77.1371 89.1074 77.0364 90.0311 77.1373C90.9547 77.2383 91.844 77.5384 92.635 78.0161" stroke="white" stroke-linecap="round" stroke-linejoin="round"/>
<path d="M243.617 53.7284C256.125 48.5457 261.973 34.4175 256.679 22.1722C251.385 9.92688 236.954 4.20151 224.446 9.38421C211.938 14.5669 206.089 28.6951 211.383 40.9404C216.677 53.1857 231.109 58.9111 243.617 53.7284Z" fill="white" stroke="#263238" stroke-linecap="round" stroke-linejoin="round"/>
<path d="M242.512 41.6338L221.064 34.6052C219.28 34.0182 217.808 32.7621 216.97 31.1127C216.132 29.4634 215.998 27.5559 216.596 25.8095C217.195 24.0635 218.479 22.6221 220.163 21.8019C221.848 20.9817 223.796 20.85 225.58 21.4357L247.029 28.4562C248.811 29.045 250.282 30.3014 251.119 31.9501C251.957 33.5989 252.092 35.5054 251.496 37.2519C250.897 38.9981 249.614 40.44 247.93 41.2615C246.245 42.083 244.297 42.2168 242.512 41.6338Z" fill="#A7E2FF"/>
<path d="M226.797 34.0453L230.391 25.6414" stroke="#263238" stroke-linecap="round" stroke-linejoin="round"/>
<path d="M238.616 37.8915L242.193 29.5116" stroke="#263238" stroke-linecap="round" stroke-linejoin="round"/>
<path d="M229.762 34.5414C230.164 34.5414 230.489 34.2227 230.489 33.8296C230.489 33.4365 230.164 33.1178 229.762 33.1178C229.361 33.1178 229.035 33.4365 229.035 33.8296C229.035 34.2227 229.361 34.5414 229.762 34.5414Z" fill="#263238"/>
<path d="M236.909 35.9247C236.909 36.0655 236.866 36.2031 236.786 36.3201C236.706 36.4372 236.593 36.5284 236.46 36.5823C236.327 36.6362 236.181 36.6503 236.04 36.6228C235.899 36.5953 235.77 36.5275 235.668 36.428C235.566 36.3285 235.497 36.2016 235.469 36.0636C235.441 35.9255 235.455 35.7824 235.51 35.6523C235.565 35.5222 235.659 35.4111 235.778 35.3329C235.898 35.2546 236.038 35.2129 236.182 35.2129C236.375 35.2129 236.56 35.2879 236.696 35.4214C236.832 35.5549 236.909 35.7359 236.909 35.9247Z" fill="#263238"/>
<path d="M232.58 28.2086C232.981 28.2086 233.307 27.89 233.307 27.4969C233.307 27.1037 232.981 26.7851 232.58 26.7851C232.178 26.7851 231.853 27.1037 231.853 27.4969C231.853 27.89 232.178 28.2086 232.58 28.2086Z" fill="#263238"/>
<path d="M239.62 29.5277C239.62 29.6685 239.578 29.8061 239.498 29.9231C239.418 30.0402 239.305 30.1314 239.172 30.1853C239.039 30.2392 238.893 30.2533 238.752 30.2258C238.611 30.1983 238.481 30.1305 238.38 30.031C238.278 29.9314 238.209 29.8046 238.181 29.6665C238.153 29.5285 238.167 29.3854 238.222 29.2553C238.277 29.1252 238.37 29.0141 238.49 28.9358C238.609 28.8576 238.75 28.8159 238.894 28.8159C239.086 28.8159 239.271 28.8909 239.408 29.0244C239.544 29.1579 239.62 29.3389 239.62 29.5277Z" fill="#263238"/>
<path d="M242.512 41.6338L221.064 34.6052C219.28 34.0182 217.808 32.7621 216.97 31.1127C216.132 29.4634 215.998 27.5559 216.596 25.8095C217.195 24.0635 218.479 22.6221 220.163 21.8019C221.848 20.9817 223.796 20.85 225.58 21.4357L247.029 28.4562C248.811 29.045 250.282 30.3014 251.119 31.9501C251.957 33.5989 252.092 35.5054 251.496 37.2519C250.897 38.9981 249.614 40.44 247.93 41.2615C246.245 42.083 244.297 42.2168 242.512 41.6338Z" stroke="#263238" stroke-linecap="round" stroke-linejoin="round"/>
<path d="M141.192 54.3233C154.774 54.3233 165.785 43.5441 165.785 30.2471C165.785 16.9502 154.774 6.17093 141.192 6.17093C127.609 6.17093 116.599 16.9502 116.599 30.2471C116.599 43.5441 127.609 54.3233 141.192 54.3233Z" fill="white" stroke="#263238" stroke-linecap="round" stroke-linejoin="round"/>
<path d="M155.281 30.8629V40.73C155.281 43.2328 153.648 45.2638 151.646 45.2638H130.737C128.728 45.2638 127.103 43.2328 127.103 40.73V30.8629C127.103 28.3601 128.736 26.3291 130.737 26.3291H134.176V20.6039H148.061V26.3291H151.622C153.648 26.3291 155.281 28.3601 155.281 30.8629Z" fill="white" stroke="#263238" stroke-linecap="round" stroke-linejoin="round"/>
<path d="M155.273 31.9983H127.103V38.1153H155.273V31.9983Z" fill="#A7E2FF" stroke="#263238" stroke-miterlimit="10"/>
<path d="M136.095 13.9034H146.419C147.585 13.9034 148.702 14.3566 149.526 15.1634C150.35 15.9701 150.813 17.0643 150.813 18.2053V22.6751H131.693V18.2053C131.693 17.6396 131.807 17.0796 132.028 16.5571C132.249 16.0347 132.574 15.5601 132.983 15.1605C133.392 14.761 133.877 14.4442 134.411 14.2285C134.945 14.0128 135.517 13.9023 136.095 13.9034Z" fill="#A7E2FF" stroke="#263238" stroke-miterlimit="10"/>
<path d="M135.033 14.1752V22.6751" stroke="#263238" stroke-linecap="round" stroke-linejoin="round"/>
<path d="M139.55 13.9034V22.6751" stroke="#263238" stroke-linecap="round" stroke-linejoin="round"/>
<path d="M144.067 13.9034V22.6751" stroke="#263238" stroke-linecap="round" stroke-linejoin="round"/>
<path d="M148.584 14.399V22.675" stroke="#263238" stroke-linecap="round" stroke-linejoin="round"/>
<path d="M78.1911 161.859C80.3909 148.737 71.3083 136.359 57.9045 134.21C44.5007 132.061 31.8515 140.956 29.6516 154.078C27.4518 167.199 36.5344 179.578 49.9382 181.727C63.342 183.875 75.9912 174.98 78.1911 161.859Z" fill="white" stroke="#263238" stroke-linecap="round" stroke-linejoin="round"/>
<path d="M66.3911 164.183C69.0698 158.638 65.3867 151.432 58.1648 148.088C50.9429 144.745 42.9169 146.53 40.2382 152.075C37.5596 157.62 41.2426 164.826 48.4645 168.169C55.6865 171.513 63.7125 169.728 66.3911 164.183Z" fill="#A7E2FF" stroke="#263238" stroke-linecap="round" stroke-linejoin="round"/>
<path d="M67.2844 162.297C69.7972 157.095 65.9797 150.168 58.7578 146.824C51.5359 143.48 43.6443 144.987 41.1315 150.189C38.6187 155.391 42.4362 162.318 49.6581 165.662C56.8801 169.005 64.7716 167.499 67.2844 162.297Z" fill="#A7E2FF" stroke="#263238" stroke-linecap="round" stroke-linejoin="round"/>
<path d="M58.3797 149.125L49.4524 161.415" stroke="#263238" stroke-linecap="round" stroke-linejoin="round"/>
<path d="M53.0052 147.134C54.2016 147.292 55.3802 147.56 56.5254 147.934" stroke="white" stroke-linecap="round" stroke-linejoin="round"/>
<path d="M45.0744 158.704C45.0744 158.704 40.5168 153.819 44.9682 149.109C45.9955 148.084 47.3332 147.411 48.7825 147.19" stroke="white" stroke-linecap="round" stroke-linejoin="round"/>
<path d="M337.235 161.881C339.432 148.759 330.348 136.378 316.944 134.227C303.541 132.076 290.894 140.969 288.697 154.091C286.499 167.213 295.584 179.594 308.987 181.745C322.39 183.896 335.037 175.003 337.235 161.881Z" fill="white" stroke="#263238" stroke-linecap="round" stroke-linejoin="round"/>
<path d="M327.08 160.399C326.892 160.663 326.705 160.935 326.509 161.199C322.825 166.197 317.148 170.858 312.942 171.778V171.714C308.858 170.818 303.361 166.381 299.678 161.535C299.474 161.271 299.277 160.999 299.09 160.735C295.545 155.762 294.05 150.54 297.995 148.381C306.016 144 312.942 153.395 312.942 153.395C312.942 153.395 319.885 144.072 327.889 148.445C331.728 150.54 330.413 155.546 327.08 160.399Z" fill="#A7E2FF" stroke="#263238" stroke-miterlimit="10"/>
<path d="M327.08 160.399C326.892 160.663 326.704 160.935 326.508 161.199H324.483L322.163 164.197L320.587 155.306L318.137 161.351H312.346L309.381 166.189L307.094 156.393L304.145 161.503H299.678C299.473 161.239 299.277 160.967 299.09 160.703H303.672L307.421 154.202L309.724 164.078L311.905 160.519H317.622L320.889 152.331L322.637 162.214L324.066 160.367L327.08 160.399Z" fill="white"/>
<path d="M289.288 110.736C302.871 110.736 313.881 99.9564 313.881 86.6595C313.881 73.3626 302.871 62.5833 289.288 62.5833C275.706 62.5833 264.695 73.3626 264.695 86.6595C264.695 99.9564 275.706 110.736 289.288 110.736Z" fill="white" stroke="#263238" stroke-linecap="round" stroke-linejoin="round"/>
<path d="M287.442 75.5291C287.679 76.049 286.201 77.2006 284.175 78.1044C282.15 79.0081 280.255 79.32 280.018 78.7922C279.781 78.2643 281.251 77.1207 283.285 76.2169C285.319 75.3132 287.197 75.0333 287.442 75.5291Z" fill="white" stroke="#263238" stroke-linecap="round" stroke-linejoin="round"/>
<path d="M298.51 97.8619L291.151 101.348L284.551 88.0427L279.993 78.8472L287.353 75.353L291.796 84.3246L298.51 97.8619Z" fill="white" stroke="#263238" stroke-linecap="round" stroke-linejoin="round"/>
<path d="M281.358 81.5902L284.551 80.1426L281.358 81.5902Z" fill="#A7E2FF"/>
<path d="M281.358 81.5902L284.551 80.1426" stroke="#263238" stroke-linecap="round" stroke-linejoin="round"/>
<path d="M282.746 84.4848L285.94 83.0372L282.746 84.4848Z" fill="#A7E2FF"/>
<path d="M282.746 84.4848L285.94 83.0372" stroke="#263238" stroke-linecap="round" stroke-linejoin="round"/>
<path d="M293.968 100.013L297.766 104.891L295.871 99.1095L293.968 100.013Z" fill="white" stroke="#263238" stroke-linecap="round" stroke-linejoin="round"/>
<path d="M298.51 97.8619C296.787 99.5506 294.588 100.698 292.196 101.156L291.151 101.348L284.551 88.0428L291.796 84.3246L298.51 97.8619Z" fill="#A7E2FF" stroke="#263238" stroke-miterlimit="10"/>
<path d="M285.939 90.5701L288.945 89.2105" stroke="#263238" stroke-linecap="round" stroke-linejoin="round"/>
<path d="M287.589 93.6643L290.538 92.3447L287.589 93.6643Z" fill="#A7E2FF"/>
<path d="M287.589 93.6643L290.538 92.3447" stroke="#263238" stroke-linecap="round" stroke-linejoin="round"/>
<path d="M282.542 77.632L280.214 72.5065L282.044 71.491L284.551 76.6804L282.542 77.632Z" fill="white" stroke="#263238" stroke-linecap="round" stroke-linejoin="round"/>
<path d="M286.536 70.867L285.98 69.6676L276.179 73.9615L276.735 75.1609C276.963 75.6727 279.34 75.1129 282.052 73.9295C284.763 72.7461 286.765 71.3708 286.536 70.867Z" fill="white" stroke="#263238" stroke-linecap="round" stroke-linejoin="round"/>
<path d="M285.98 69.6678C285.752 69.1639 283.367 69.7158 280.663 70.8994C277.96 72.0831 275.95 73.4587 276.179 73.9625C276.408 74.4664 278.793 73.9145 281.496 72.7229C284.2 71.5312 286.209 70.1716 285.98 69.6678Z" fill="white" stroke="#263238" stroke-linecap="round" stroke-linejoin="round"/>
</svg>
