<svg width="35" height="39" viewBox="0 0 35 39" fill="none" xmlns="http://www.w3.org/2000/svg">
<path d="M25.7543 26.5914C24.8293 26.5914 24.0795 25.7559 24.0795 24.7252V13.8581C24.0795 10.1955 21.4054 7.2157 18.1184 7.2157C14.8314 7.2157 12.1572 10.1955 12.1572 13.8581V20.1786C12.1572 21.2093 11.4074 22.0448 10.4824 22.0448C9.55745 22.0448 8.80762 21.2093 8.80762 20.1786V13.8581C8.80762 8.13738 12.9844 3.48328 18.1184 3.48328C23.2524 3.48328 27.4291 8.13738 27.4291 13.8581V24.7252C27.4291 25.7559 26.6793 26.5914 25.7543 26.5914Z" fill="#B1B4B5"/>
<path d="M28.3086 37.8924H7.9281C6.02532 37.8924 4.48279 36.1736 4.48279 34.0533V20.9237C4.48279 18.8035 6.02532 17.0847 7.9281 17.0847H28.3086C30.2114 17.0847 31.754 18.8035 31.754 20.9237V34.0532C31.754 36.1736 30.2114 37.8924 28.3086 37.8924Z" fill="#FFB636"/>
<path d="M7.47241 34.7984H7.2998C6.75614 34.7984 6.31543 34.3074 6.31543 33.7016V21.2755C6.31543 20.6697 6.75614 20.1786 7.2998 20.1786H7.47241C8.01607 20.1786 8.45679 20.6697 8.45679 21.2755V33.7016C8.45679 34.3074 8.01607 34.7984 7.47241 34.7984Z" fill="#FFD469"/>
</svg>
