<svg width="24" height="28" viewBox="0 0 24 28" fill="none" xmlns="http://www.w3.org/2000/svg">
<path d="M17 14.3333V3.66667C17 2.95942 16.719 2.28115 16.219 1.78105C15.7189 1.28095 15.0406 1 14.3333 1H11.6667M11.6667 1H3.66667C2.95942 1 2.28115 1.28095 1.78105 1.78105C1.28095 2.28115 1 2.95942 1 3.66667V19.6667C1 20.3739 1.28095 21.0522 1.78105 21.5523C2.28115 22.0524 2.95942 22.3333 3.66667 22.3333H13M11.6667 1V15M6.33333 6.33333V10.3333" stroke="#3667A6" stroke-width="2" stroke-linecap="round" stroke-linejoin="round"/>
<path d="M22.3333 26.3333V16.8666C22.3331 15.6407 22.0913 14.4269 21.6219 13.2945C21.1524 12.162 20.4645 11.1332 19.5973 10.2666L16.9973 7.66663V16.4493C16.9973 17.636 15.5613 18.232 14.7213 17.392L12.9947 15.6666C12.328 15 10.7267 14.6 9.65868 15.6666C8.59201 16.7333 8.99201 18.3333 9.65868 19L16.996 26.3333" stroke="#3667A6" stroke-width="2" stroke-linecap="round" stroke-linejoin="round"/>
</svg>
